<?xml version="1.0"?>
<!-- Created with xTool Creative Space (https://www.xtool.com/pages/software) -->
<svg xmlns="http://www.w3.org/2000/svg" xmlns:xlink="http://www.w3.org/1999/xlink" xmlns:xcs="https://www.xtool.com/pages/software" version="1.1" preserveAspectRatio="xMinYMin meet" width="89.51159155797023mm" height="55.30237445512229mm" viewBox="12.530069179515941 28.660063997101762 89.51159155797023 55.30237445512229" xcs:version="1.3.6"><style></style>
<g transform="matrix(0.441806,0,0,0.441806,11.739237,37.133896)" stroke="none" fill="#00befe" data-view-type="laser"><path transform="matrix(1,0,0,1,0,0)" stroke="none" fill="#00befe" data-view-type="laser" d="M1.79 0L4.38 0L4.38 -17.14L1.79 -17.14Z" fill-rule="nonzero"></path>
<path transform="matrix(1,0,0,1,6.6675,0)" stroke="none" fill="#00befe" data-view-type="laser" d="M6.11 0L8.71 0L8.71 -15.34L13.96 -15.34L13.96 -17.14L0.85 -17.14L0.85 -15.34L6.11 -15.34Z" fill-rule="nonzero"></path>
<path transform="matrix(1,0,0,1,21.5646,0)" stroke="none" fill="#00befe" data-view-type="laser" d="M0.81 0L3.49 0L5 -4.76L11.82 -4.76L13.32 0L16.01 0L10.27 -17.18L6.55 -17.18ZM5.46 -6.52L8.41 -15.63L8.43 -15.63L11.38 -6.52Z" fill-rule="nonzero"></path>
<path transform="matrix(1,0,0,1,38.3921,0)" stroke="none" fill="#00befe" data-view-type="laser" d="M6.34 0.15Q9.61 0.15 10.91 -1.31Q12.2 -2.78 12.2 -6.07Q12.2 -9.08 11.1 -10.4Q9.99 -11.72 7.59 -11.72Q5.33 -11.72 3.68 -10.64Q2.02 -9.55 1.89 -7.52L3.38 -7.47Q3.4 -8.66 4.31 -9.38Q5.21 -10.1 6.65 -10.1Q8.04 -10.1 8.81 -9.33Q9.59 -8.56 9.59 -6.03Q9.59 -3.25 8.78 -2.42Q7.98 -1.59 6.45 -1.59Q4.91 -1.59 4.15 -2.35Q3.39 -3.11 3.38 -5.13L0.81 -5.13Q0.81 -2.69 2.04 -1.27Q3.28 0.15 6.34 0.15ZM0.81 -7.47L3.38 -7.47L3.38 -15.35L11.84 -15.35L11.84 -17.14L0.81 -17.14Z" fill-rule="nonzero"></path>
<path transform="matrix(1,0,0,1,51.7144,0)" stroke="none" fill="#00befe" data-view-type="laser" d="M6.85 0.18Q10.36 0.18 11.51 -1.15Q12.66 -2.48 12.66 -4.88Q12.66 -6.64 11.72 -7.59Q10.78 -8.53 8.84 -8.59Q10.77 -8.66 11.72 -9.65Q12.66 -10.64 12.66 -12.42Q12.66 -14.66 11.5 -15.96Q10.34 -17.27 6.85 -17.27Q3.48 -17.27 2.24 -15.77Q1 -14.26 1 -11.07L3.57 -11.07Q3.57 -13.91 4.4 -14.71Q5.23 -15.51 6.86 -15.51Q8.51 -15.51 9.3 -14.76Q10.1 -14.02 10.1 -12.03Q10.1 -10.63 9.26 -10.03Q8.43 -9.42 6.24 -9.37L6.24 -7.72Q8.43 -7.68 9.26 -7.13Q10.1 -6.58 10.1 -5.14Q10.1 -3.07 9.32 -2.34Q8.55 -1.6 6.86 -1.6Q5.17 -1.6 4.37 -2.36Q3.57 -3.12 3.57 -5.7L1 -5.7Q1 -2.71 2.2 -1.26Q3.4 0.18 6.85 0.18Z" fill-rule="nonzero"></path>
<path transform="matrix(1,0,0,1,65.5193,0)" stroke="none" fill="#00befe" data-view-type="laser" d="M0.97 0L12.33 0L12.33 -1.8L3.67 -1.8Q3.67 -2.78 4.61 -3.87Q5.55 -4.95 7.72 -6.35Q9.8 -7.79 11.07 -9.29Q12.34 -10.79 12.34 -12.97Q12.34 -14.76 11.2 -16.01Q10.06 -17.27 6.76 -17.27Q3.43 -17.27 2.18 -15.66Q0.93 -14.05 0.93 -11.23L3.51 -11.23Q3.51 -13.69 4.34 -14.58Q5.18 -15.47 6.76 -15.47Q8.22 -15.47 8.99 -14.91Q9.75 -14.35 9.75 -12.94Q9.75 -11.35 8.92 -10.26Q8.08 -9.17 5.79 -7.73Q3.28 -6.24 2.12 -4.72Q0.97 -3.2 0.97 -1.55Z" fill-rule="nonzero"></path>
<path transform="matrix(1,0,0,1,78.9178,0)" stroke="none" fill="#00befe" data-view-type="laser" d="M6.1 0.14Q7.2 0.14 8.07 -0.06Q8.94 -0.25 9.58 -0.57Q10.21 -0.88 10.62 -1.23Q11.02 -1.59 11.19 -1.9L11.4 0L13.55 0L13.55 -9.58Q13.55 -11.61 12.82 -12.84Q12.09 -14.07 10.69 -14.63Q9.3 -15.19 7.29 -15.19Q6.1 -15.19 5.05 -14.94Q4.01 -14.69 3.19 -14.16Q2.37 -13.63 1.82 -12.76Q1.27 -11.9 1.07 -10.66L3.58 -9.98Q3.77 -11.24 4.27 -12Q4.78 -12.75 5.55 -13.09Q6.32 -13.44 7.3 -13.44Q8.43 -13.44 9.26 -13.06Q10.08 -12.67 10.53 -11.86Q10.97 -11.04 10.97 -9.7L10.97 -8.85L6.06 -8.85Q4.88 -8.85 3.92 -8.64Q2.97 -8.42 2.31 -7.92Q1.64 -7.42 1.28 -6.56Q0.93 -5.7 0.93 -4.41Q0.93 -3.06 1.29 -2.18Q1.65 -1.3 2.34 -0.79Q3.04 -0.28 3.98 -0.07Q4.93 0.14 6.1 0.14ZM6.65 -1.55Q6.01 -1.55 5.44 -1.68Q4.86 -1.82 4.43 -2.13Q4 -2.45 3.77 -3.02Q3.53 -3.59 3.53 -4.51Q3.53 -5.4 3.77 -5.97Q4.01 -6.54 4.44 -6.85Q4.86 -7.16 5.44 -7.28Q6.01 -7.4 6.65 -7.4L10.93 -7.4L10.93 -3.48Q10.72 -3.01 10.15 -2.57Q9.58 -2.12 8.69 -1.84Q7.81 -1.55 6.65 -1.55Z" fill-rule="nonzero"></path>
<path transform="matrix(1,0,0,1,93.9419,0)" stroke="none" fill="#00befe" data-view-type="laser" d="M7.44 0.1Q10.82 0.1 12.44 -1.77Q14.06 -3.64 14.06 -7.57Q14.06 -11.49 12.44 -13.35Q10.82 -15.21 7.44 -15.21Q4.08 -15.21 2.45 -13.35Q0.83 -11.49 0.83 -7.57Q0.83 -3.64 2.45 -1.77Q4.08 0.1 7.44 0.1ZM7.44 -1.66Q5.68 -1.66 4.53 -2.9Q3.39 -4.14 3.39 -7.56Q3.39 -10.97 4.53 -12.2Q5.68 -13.44 7.44 -13.44Q9.21 -13.44 10.35 -12.2Q11.49 -10.97 11.49 -7.56Q11.49 -4.14 10.35 -2.9Q9.21 -1.66 7.44 -1.66Z" fill-rule="nonzero"></path>
<path transform="matrix(1,0,0,1,109.2073,0)" stroke="none" fill="#00befe" data-view-type="laser" d="M-1.65 5.83Q1.33 5.83 2.88 4.65Q4.43 3.47 4.43 0.23L4.43 -15.06L1.87 -15.06L1.87 0.33Q1.87 2.46 0.95 3.24Q0.04 4.03 -1.65 4.03ZM1.87 -19.18L1.87 -16.9L4.44 -16.9L4.44 -19.18Z" fill-rule="nonzero"></path>
<path transform="matrix(1,0,0,1,115.6208,0)" stroke="none" fill="#00befe" data-view-type="laser" d="M7.44 0.13L7.44 -1.57Q5.51 -1.57 4.43 -2.98Q3.34 -4.37 3.34 -7.56Q3.34 -10.92 4.47 -12.22Q5.59 -13.5 7.4 -13.5Q9.27 -13.5 10.31 -12.28Q11.21 -11.14 11.32 -8.37L3.06 -8.37L3.06 -6.77L13.86 -6.77Q13.91 -7.15 13.91 -7.59Q13.91 -11.37 12.41 -13.28Q10.9 -15.2 7.4 -15.2Q4.01 -15.2 2.44 -13.28Q0.85 -11.38 0.85 -7.56Q0.85 -3.95 2.4 -1.9Q3.94 0.13 7.44 0.13ZM7.44 -1.57L7.44 0.13Q9.35 0.13 10.59 -0.37Q11.84 -0.86 12.62 -1.96Q13.4 -3.04 13.61 -4.58L11.3 -5.21Q11.09 -4.09 10.66 -3.2Q10.2 -2.31 9.37 -1.94Q8.55 -1.57 7.44 -1.57Z" fill-rule="nonzero"></path>
<path transform="matrix(1,0,0,1,130.8227,0)" stroke="none" fill="#00befe" data-view-type="laser" d="M11.2 0L13.2 0L13.2 -15.05L10.63 -15.05L10.63 -2.54ZM3.7 -15.06L1.13 -15.06L1.13 -6.38Q1.13 -3.3 2.2 -1.58Q3.28 0.14 5.92 0.14Q8.66 0.14 10.28 -1.5Q11.9 -3.15 11.9 -4.99L10.64 -5.74Q10.64 -3.96 9.53 -2.81Q8.42 -1.66 6.82 -1.66Q5.23 -1.66 4.46 -2.76Q3.7 -3.85 3.7 -6.48Z" fill-rule="nonzero"></path>
<path transform="matrix(1,0,0,1,145.6563,0)" stroke="none" fill="#00befe" data-view-type="laser" d="M7.76 0.17Q9.16 0.17 10.43 -0.15L10.43 -1.89Q9.55 -1.6 8.62 -1.6Q7.58 -1.6 7.01 -2.04Q6.44 -2.49 6.44 -3.87L6.44 -13.25L11.42 -13.25L11.42 -15.05L6.44 -15.05L6.44 -18.45L3.86 -18.45L3.86 -15.05L0.34 -15.05L0.34 -13.25L3.86 -13.25L3.86 -3.28Q3.86 -1.3 4.98 -0.57Q6.1 0.17 7.76 0.17Z" fill-rule="nonzero"></path>
<path transform="matrix(1,0,0,1,158.0515,0)" stroke="none" fill="#00befe" data-view-type="laser" d="M7.44 0.1Q10.82 0.1 12.44 -1.77Q14.06 -3.64 14.06 -7.57Q14.06 -11.49 12.44 -13.35Q10.82 -15.21 7.44 -15.21Q4.08 -15.21 2.45 -13.35Q0.83 -11.49 0.83 -7.57Q0.83 -3.64 2.45 -1.77Q4.08 0.1 7.44 0.1ZM7.44 -1.66Q5.68 -1.66 4.53 -2.9Q3.39 -4.14 3.39 -7.56Q3.39 -10.97 4.53 -12.2Q5.68 -13.44 7.44 -13.44Q9.21 -13.44 10.35 -12.2Q11.49 -10.97 11.49 -7.56Q11.49 -4.14 10.35 -2.9Q9.21 -1.66 7.44 -1.66Z" fill-rule="nonzero"></path>
<path transform="matrix(1,0,0,1,173.3169,0)" stroke="none" fill="#00befe" data-view-type="laser" d="M3.77 0L6.54 0Q6.55 -4.44 7.83 -8.15Q9.11 -11.86 11.76 -15.35L11.76 -17.14L0.6 -17.14L0.6 -15.35L8.99 -15.35L8.99 -15.32Q6.4 -12.06 5.09 -8.27Q3.77 -4.47 3.77 0Z" fill-rule="nonzero"></path>
<path transform="matrix(1,0,0,1,185.6105,0)" stroke="none" fill="#00befe" data-view-type="laser" d="M-1.65 5.83Q1.33 5.83 2.88 4.65Q4.43 3.47 4.43 0.23L4.43 -15.06L1.87 -15.06L1.87 0.33Q1.87 2.46 0.95 3.24Q0.04 4.03 -1.65 4.03ZM1.87 -19.18L1.87 -16.9L4.44 -16.9L4.44 -19.18Z" fill-rule="nonzero"></path>
<path transform="matrix(1,0,0,1,192.024,0)" stroke="none" fill="#00befe" data-view-type="laser" d="M6.49 0.15Q9.91 0.15 11.14 -1.9Q12.37 -3.95 12.37 -9.3Q12.37 -13.46 11.26 -15.37Q10.16 -17.27 6.74 -17.27Q3.19 -17.27 2.04 -15.74Q0.89 -14.2 0.89 -11.23Q0.89 -8.23 1.96 -6.84Q3.02 -5.45 5.58 -5.45Q7.92 -5.45 9.47 -6.63Q11.02 -7.81 11.07 -9.21L9.8 -9.82Q9.77 -8.66 8.85 -7.87Q7.92 -7.09 6.45 -7.09Q4.95 -7.09 4.21 -7.86Q3.47 -8.64 3.47 -11.21Q3.47 -13.7 4.23 -14.6Q4.99 -15.51 6.62 -15.51Q8.23 -15.51 9.01 -14.45Q9.79 -13.39 9.79 -9.56Q9.79 -3.99 8.9 -2.78Q8.01 -1.57 6.49 -1.57Q4.99 -1.57 4.39 -2.41Q3.78 -3.24 3.75 -4.57L1.17 -4.57Q1.17 -2.97 2.16 -1.41Q3.15 0.15 6.49 0.15Z" fill-rule="nonzero"></path></g><path transform="matrix(0.0816898,0,0,0.0817334,33.44236,40.398549)" stroke="none" fill="#000000" data-view-type="laser" d="M 52 129 L 52 210 L 211 210 C 211.95835 206.68043 215.41843 206.37136 214 201.5 L 214 48 L 52 48 L 52 129 z M 260 82 L 260 116 C 252.88592 116.18623 245.67604 115.47384 238.64897 116.75938 C 234.46558 118.04851 236.43776 122.67251 236 125.857 L 236 161 L 260 161 L 260 116 L 281 116 L 281 48 L 260 48 L 260 82 z M 376 127.5 C 376.12207 153.57608 375.77514 179.66999 376.76811 205.73046 C 376.85932 210.6241 380.36471 210.25867 384.5 210 L 537 210 L 537 48 L 376 48 L 376 127.5 z M 190 128 L 190 186 L 74 186 L 74 70 L 190 70 L 190 128 z M 330 82 L 330 94 L 351 94 L 351 70 L 330 70 L 330 82 z M 516 128 L 516 186 L 400 186 C 399.04165 182.68043 395.58157 182.37136 397 177.5 L 397 73 C 400.31957 72.04165 400.62864 68.581573 405.5 70 L 516 70 L 516 128 z M 98 127.5 L 98 161 L 165 161 L 165 94 L 98 94 L 98 127.5 z M 421 127.5 L 421 161 L 492 161 L 492 94 L 421 94 L 421 127.5 z M 284 161.5 L 284 207 C 280.68043 207.95835 280.37136 211.41843 275.5 210 L 260 210 L 260 186 L 236 186 C 236.28818 192.98201 235.22928 200.24085 237 207 C 237.33557 211.26962 241.50053 209.78207 245 210 L 260 210 L 260 302 L 214 302 L 214 280 L 190 280 L 190 256 L 236 256 L 236 231 L 168 231 L 168 302 L 214 302 L 214 326 L 190 326 L 190 347 L 236 347 L 236 326 L 260 326 L 260 347 L 306 347 L 306 326 L 330 326 L 330 302 C 336.98201 302.28818 344.24085 301.22928 351 303 C 355.26962 303.33557 353.78207 307.50053 354 311 L 354 347 L 376 347 L 376 302 L 397 302 L 397 280 L 376 280 L 376 256 L 354 256 L 354 277 C 350.68043 277.95835 350.37136 281.41843 345.5 280 L 330 280 L 330 302 L 282.233 302 C 280.34105 292.23864 281.50791 282.08344 281.0289 272.17366 C 280.99896 259.44916 281.01097 246.72454 281 234 C 284.31957 233.04165 284.62864 229.58157 289.5 231 L 306 231 L 306 277 L 330 277 L 330 256 L 351 256 L 351 231 L 330 231 L 330 210 L 351 210 L 351 164 L 307.233 164 C 305.25166 153.76688 306.33003 143.14926 306.01078 132.75 L 306 116 L 284 116 L 284 161.5 z M 330 198 L 330 210 L 306 210 L 306 186 L 330 186 L 330 198 z M 52 254 L 52 277 L 95 277 C 95.95835 280.31957 99.418427 280.62864 98 285.5 L 98 302 L 74 302 L 74 326 L 52 326 L 52 347 L 98 347 L 98 302 L 144 302 L 144 347 L 165 347 L 165 302 L 144 302 L 144 256 L 98 256 L 98 234 C 94.680429 233.04165 94.371358 229.58157 89.5 231 L 52 231 L 52 254 z M 421 243.5 L 421 256 L 446 256 L 446 277 L 467 277 C 467.95835 280.31957 471.41843 280.62864 470 285.5 L 470 302 L 446 302 L 446 326 L 421 326 L 421 302 L 400 302 L 400 347 L 421 347 L 421 372 L 446 372 L 446 393 L 467 393 C 467.95835 396.31957 471.41843 396.62864 470 401.5 L 470 417 L 492 417 C 492.28818 410.01799 491.22928 402.75915 493 396 C 493.33557 391.73038 497.50053 393.21793 501 393 L 516 393 L 516 372 L 492 372 L 492 347 L 516 347 L 516 277 L 537 277 L 537 256 L 467 256 L 467 231 L 421 231 L 421 243.5 z M 467 348.5 C 470.85492 349.56263 470.0168 353.14075 470 357 C 470.02451 362.02396 470.35948 369.39374 467 372 L 446 372 L 446 347 L 467 347 L 467 348.5 z M 236 383.5 L 236 417 L 260 417 C 260.25377 409.00668 259.281 400.82007 261.233 393 L 281 393 L 281 372 L 260 372 L 260 350 L 236 350 L 236 383.5 z M 376 373 L 376 396 L 354 396 C 353.04165 392.68043 349.58157 392.37136 351 387.5 L 351 372 L 306 372 L 306 393 L 327 393 C 327.95835 396.31957 331.41843 396.62864 330 401.5 L 330 417 L 284 417 L 284 442 L 306 442 L 306 463 L 330 463 L 330 442 L 351 442 L 351 417 L 376 417 L 376 442 L 354 442 L 354 463 L 376 463 L 376 442 L 400 442 L 400 463 C 396.68043 463.95835 396.37136 467.41843 391.5 466 L 376 466 L 376 487 L 351 487 L 351 466 L 330 466 L 330 487 L 306 487 L 306 466 L 284 466 L 284 487 L 306 487 L 306 512 L 260 512 L 260 487 L 236 487 L 236 533 L 421 533 L 421 512 L 446 512 L 446 533 L 467 533 L 467 512 L 446 512 L 446 463 L 467 463 C 467.95835 466.31957 471.41843 466.62864 470 471.5 L 470 512 L 492 512 L 492 533 L 516 533 L 516 512 L 492 512 L 492 487 L 537 487 L 537 466 L 516 466 L 516 442 L 467 442 L 467 417 L 446 417 L 446 442 L 421 442 L 421 417 L 397 417 L 397 350 L 376 350 L 376 373 z M 52 452.5 L 52 533 L 214 533 L 214 374.857 C 212.2615 372.18 209.70529 371.48051 206.643 372 L 52 372 L 52 452.5 z M 188 394.5 C 191.03491 401.75864 189.10867 410.92198 189.8563 418.94922 C 190.10179 449.96544 189.96336 480.98311 190 512 L 74 512 L 74 396 C 77.319571 395.04165 77.628642 391.58157 82.5 393 L 188 393 L 188 394.5 z M 516 406.5 L 516 417 L 537 417 L 537 396 L 516 396 L 516 406.5 z M 98 452 L 98 487 L 165 487 L 165 417 L 98 417 L 98 452 z M 260 452.5 L 260 463 L 281 463 L 281 442 L 260 442 L 260 452.5 z M 400 499.5 L 400 512 L 376 512 L 376 487 L 400 487 L 400 499.5 z " fill-rule="nonzero"></path></svg>